PathFileType	4	(X/Y/Z)	C:\Users\86182\Documents\cortex\Trimmed_M4_H15.trc
DataRate	CameraRate	NumFrames	NumMarkers	Units	OrigDataRate	OrigDataStartFrame	OrigNumFrames
100.00	100.00	       112	2	mm	100.00	361	       901
Frame#	Time	gripper			box			
		X1	Y1	Z1	X2	Y2	Z2	

361	3.600	276.14319	151.11966	292.25253	278.07712	148.05731	155.53922	
362	3.610	276.14758	151.11809	292.24609	278.06006	148.04579	155.53461	
363	3.620	276.14774	151.11757	292.23737	278.04001	148.03401	155.52744	
364	3.630	276.14410	151.11786	292.22864	278.01971	148.02411	155.52066	
365	3.640	276.13818	151.11871	292.22220	278.00201	148.01750	155.51672	
366	3.650	276.13214	151.11986	292.21964	277.98996	148.01491	155.51668	
367	3.660	276.12817	151.12103	292.22131	277.98563	148.01628	155.52022	
368	3.670	276.12747	151.12202	292.22614	277.98935	148.02089	155.52609	
369	3.680	276.12988	151.12270	292.23215	277.99918	148.02722	155.53253	
370	3.690	276.13443	151.12292	292.23718	278.01147	148.03337	155.53770	
371	3.700	276.13989	151.12274	292.23975	278.02197	148.03746	155.54008	
372	3.710	276.14496	151.12231	292.23914	278.02725	148.03833	155.53883	
373	3.720	276.14841	151.12193	292.23572	278.02597	148.03587	155.53416	
374	3.730	276.14957	151.12183	292.23056	278.01910	148.03113	155.52759	
375	3.740	276.14865	151.12206	292.22528	278.00937	148.02573	155.52141	
376	3.750	276.14673	151.12259	292.22177	278.00021	148.02129	155.51779	
377	3.760	276.14505	151.12326	292.22137	277.99445	148.01898	155.51794	
378	3.770	276.14441	151.12378	292.22443	277.99341	148.01926	155.52194	
379	3.780	276.14493	151.12384	292.23016	277.99677	148.02184	155.52887	
380	3.790	276.14648	151.12337	292.23706	278.00320	148.02596	155.53712	
381	3.800	276.14868	151.12260	292.24335	278.01114	148.03072	155.54486	
382	3.810	276.15121	151.12190	292.24747	278.01898	148.03523	155.55034	
383	3.820	276.15369	151.12154	292.24854	278.02493	148.03854	155.55229	
384	3.830	276.15558	151.12170	292.24628	278.02728	148.03978	155.55031	
385	3.840	276.15631	151.12242	292.24109	278.02524	148.03857	155.54497	
386	3.850	276.15515	151.12364	292.23380	278.01932	148.03537	155.53749	
387	3.860	276.15134	151.12531	292.22583	278.01086	148.03114	155.52956	
388	3.870	276.14468	151.12726	292.21915	278.00153	148.02676	155.52286	
389	3.880	276.13593	151.12927	292.21567	277.99313	148.02304	155.51891	
390	3.890	276.12674	151.13110	292.21667	277.98737	148.02055	155.51871	
391	3.900	276.11884	151.13251	292.22214	277.98508	148.01964	155.52248	
392	3.910	276.11337	151.13330	292.23059	277.98611	148.02029	155.52946	
393	3.920	276.11050	151.13342	292.23987	277.98965	148.02213	155.53796	
394	3.930	276.11011	151.13295	292.24768	277.99460	148.02452	155.54579	
395	3.940	276.11197	151.13200	292.25247	277.99991	148.02684	155.55095	
396	3.950	276.11612	151.13065	292.25345	278.00507	148.02875	155.55217	
397	3.960	276.12219	151.12903	292.25067	278.01013	148.03020	155.54924	
398	3.970	276.12958	151.12732	292.24500	278.01553	148.03139	155.54274	
399	3.980	276.13770	151.12572	292.23773	278.02158	148.03250	155.53397	
400	3.990	276.14606	151.12437	292.23071	278.02838	148.03372	155.52463	
401	4.000	276.15402	151.12338	292.22568	278.03571	148.03526	155.51660	
402	4.010	276.16083	151.12270	292.22382	278.04282	148.03726	155.51151	
403	4.020	276.16565	151.12219	292.22516	278.04828	148.03952	155.51019	
404	4.030	276.16794	151.12189	292.22882	278.05038	148.04146	155.51256	
405	4.040	276.16745	151.12184	292.23352	278.04819	148.04242	155.51765	
406	4.050	276.16431	151.12212	292.23834	278.04175	148.04189	155.52409	
407	4.060	276.15903	151.12273	292.24255	278.03210	148.03963	155.53044	
408	4.070	276.15240	151.12363	292.24567	278.02081	148.03603	155.53564	
409	4.080	276.14557	151.12456	292.24744	278.00989	148.03194	155.53920	
410	4.090	276.13989	151.12517	292.24786	278.00134	148.02832	155.54092	
411	4.100	276.13629	151.12518	292.24738	277.99649	148.02586	155.54086	
412	4.110	276.13492	151.12466	292.24640	277.99600	148.02501	155.53922	
413	4.120	276.13562	151.12384	292.24533	278.00000	148.02596	155.53619	
414	4.130	276.13812	151.12294	292.24442	278.00842	148.02879	155.53195	
415	4.140	276.14224	151.12216	292.24371	278.02048	148.03331	155.52679	
416	4.150	276.14758	151.12160	292.24319	278.03452	148.03894	155.52119	
417	4.160	276.15326	151.12132	292.24283	278.04849	148.04469	155.51578	
418	4.170	276.15820	151.12129	292.24255	278.06027	148.04936	155.51112	
419	4.180	276.16153	151.12143	292.24237	278.06808	148.05203	155.50786	
420	4.190	276.16284	151.12164	292.24240	278.07092	148.05243	155.50652	
421	4.200	276.16208	151.12192	292.24258	278.06870	148.05080	155.50734	
422	4.210	276.15952	151.12221	292.24286	278.06241	148.04784	155.51028	
423	4.220	276.15555	151.12251	292.24323	278.05350	148.04433	155.51503	
424	4.230	276.15082	151.12286	292.24371	278.04367	148.04092	155.52081	
425	4.240	276.14624	151.12331	292.24432	278.03467	148.03813	155.52657	
426	4.250	276.14273	151.12390	292.24512	278.02795	148.03638	155.53110	
427	4.260	276.14029	151.12479	292.24603	278.02444	148.03596	155.53352	
428	4.270	276.13852	151.12595	292.24698	278.02451	148.03703	155.53336	
429	4.280	276.13730	151.12718	292.24762	278.02795	148.03954	155.53056	
430	4.290	276.13684	151.12822	292.24765	278.03418	148.04314	155.52560	
431	4.300	276.13733	151.12901	292.24698	278.04196	148.04730	155.51944	
432	4.310	276.13861	151.12968	292.24567	278.04984	148.05133	155.51321	
433	4.320	276.14050	151.13025	292.24402	278.05710	148.05478	155.50793	
434	4.330	276.14297	151.13055	292.24255	278.06351	148.05746	155.50420	
435	4.340	276.14575	151.13040	292.24170	278.06873	148.05920	155.50243	
436	4.350	276.14856	151.12971	292.24158	278.07196	148.05972	155.50285	
437	4.360	276.15128	151.12851	292.24213	278.07257	148.05891	155.50551	
438	4.370	276.15405	151.12689	292.24313	278.07037	148.05698	155.51018	
439	4.380	276.15701	151.12503	292.24420	278.06577	148.05437	155.51625	
440	4.390	276.15991	151.12326	292.24500	278.05969	148.05167	155.52269	
441	4.400	276.16220	151.12195	292.24542	278.05325	148.04927	155.52821	
442	4.410	276.16321	151.12144	292.24548	278.04776	148.04759	155.53162	
443	4.420	276.16232	151.12195	292.24524	278.04446	148.04700	155.53223	
444	4.430	276.15927	151.12354	292.24487	278.04407	148.04771	155.53024	
445	4.440	276.15427	151.12604	292.24448	278.04633	148.04950	155.52655	
446	4.450	276.14792	151.12907	292.24414	278.05008	148.05164	155.52228	
447	4.460	276.14114	151.13213	292.24411	278.05368	148.05324	155.51848	
448	4.470	276.13477	151.13466	292.24457	278.05573	148.05379	155.51605	
449	4.480	276.12924	151.13634	292.24570	278.05542	148.05330	155.51550	
450	4.490	276.12479	151.13704	292.24756	278.05276	148.05215	155.51691	
451	4.500	276.12183	151.13678	292.24982	278.04837	148.05087	155.51993	
452	4.510	276.12100	151.13567	292.25195	278.04324	148.04973	155.52386	
453	4.520	276.12262	151.13387	292.25351	278.03827	148.04874	155.52789	
454	4.530	276.12643	151.13164	292.25427	278.03400	148.04785	155.53139	
455	4.540	276.13168	151.12929	292.25427	278.03104	148.04720	155.53391	
456	4.550	276.13751	151.12712	292.25363	278.03024	148.04709	155.53499	
457	4.560	276.14328	151.12535	292.25247	278.03262	148.04791	155.53427	
458	4.570	276.14841	151.12408	292.25098	278.03857	148.04980	155.53174	
459	4.580	276.15247	151.12341	292.24936	278.04749	148.05264	155.52776	
460	4.590	276.15549	151.12321	292.24768	278.05783	148.05603	155.52306	
461	4.600	276.15784	151.12338	292.24597	278.06772	148.05956	155.51851	
462	4.610	276.15973	151.12375	292.24420	278.07541	148.06277	155.51483	
463	4.620	276.16098	151.12425	292.24265	278.07971	148.06525	155.51254	
464	4.630	276.16135	151.12488	292.24149	278.08011	148.06656	155.51183	
465	4.640	276.16046	151.12560	292.24097	278.07706	148.06644	155.51260	
466	4.650	276.15808	151.12634	292.24127	278.07129	148.06490	155.51471	
467	4.660	276.15414	151.12706	292.24255	278.06369	148.06216	155.51787	
468	4.670	276.14920	151.12767	292.24460	278.05521	148.05869	155.52162	
469	4.680	276.14438	151.12807	292.24689	278.04700	148.05493	155.52534	
470	4.690	276.14102	151.12813	292.24872	278.04047	148.05161	155.52837	
471	4.700	276.14001	151.12785	292.24963	278.03705	148.04945	155.53008	
472	4.710	276.14157	151.12738	292.24942	278.03781	148.04904	155.53004	
